<svg width="168" height="33" viewBox="0 0 168 33" fill="none" xmlns="http://www.w3.org/2000/svg">
<g clip-path="url(#clip0_498_1749)">
<path d="M6.11914 15.4191L8.7292 12.8095C7.28769 12.8095 6.11914 13.9781 6.11914 15.4191Z" fill="white"/>
<path d="M26.7024 2V14.061H25.478C24.8411 11.4713 22.5044 9.55025 19.718 9.55025H8.4527C5.66683 9.55025 3.33069 11.4713 2.69325 14.061H1.42139V17.0976H2.74491C3.44861 19.5887 5.73695 21.4149 8.4527 21.4149C10.7477 21.4149 12.1768 20.5099 13.4653 18.7925C13.7008 18.4779 13.9368 18.3737 14.0856 18.3737C14.2345 18.3737 14.4704 18.4779 14.7059 18.7925C15.9939 20.5099 17.4236 21.4149 19.718 21.4149C22.4347 21.4149 24.7231 19.5887 25.4262 17.0976H26.7024V20.2905C26.7019 21.0335 26.5526 21.7344 26.2825 22.3746C25.8764 23.3342 25.1954 24.1549 24.3397 24.7326C23.9122 25.0217 23.4417 25.2501 22.9393 25.4059C22.437 25.5623 21.9035 25.6467 21.3457 25.6467H17.9467C17.9125 25.5424 17.8751 25.4391 17.8324 25.3387C17.5225 24.606 17.0074 23.9857 16.3573 23.5469C15.7081 23.1076 14.9181 22.8499 14.078 22.8499C13.5184 22.8499 12.98 22.9641 12.4919 23.1712C11.7589 23.4806 11.139 23.9962 10.6997 24.6459C10.2604 25.2951 10.0027 26.0851 10.0031 26.9252C10.0031 27.4848 10.1174 28.0236 10.3235 28.5117C10.6343 29.2444 11.1494 29.8641 11.7991 30.3034C12.4478 30.7427 13.2378 31.0004 14.078 31.0001C14.6376 31.0001 15.1764 30.8863 15.6645 30.6792C16.3976 30.3689 17.0174 29.8538 17.4562 29.2041C17.6003 28.9913 17.7244 28.7629 17.8267 28.5232H21.3457C22.4787 28.5232 23.5653 28.2929 24.551 27.8754C26.0304 27.2494 27.2842 26.2078 28.1723 24.8943C28.6153 24.2374 28.9679 23.5124 29.2082 22.7381C29.4494 21.9638 29.5787 21.1398 29.5787 20.2906V2H26.7024ZM19.718 19.1779C18.2775 19.1779 17.4648 18.7418 16.4957 17.4501C15.8692 16.6151 14.9911 16.136 14.0855 16.136C13.1805 16.136 12.3015 16.6151 11.6754 17.4501C10.7068 18.7418 9.89324 19.1779 8.45264 19.1779C6.4155 19.1779 4.75786 17.5198 4.75786 15.4826C4.75786 13.4449 6.41545 11.7873 8.45264 11.7873H19.718C21.7561 11.7873 23.4138 13.4449 23.4138 15.4826C23.4138 17.5198 21.7561 19.1779 19.718 19.1779ZM15.7721 27.6398C15.6333 27.9686 15.3987 28.2511 15.1049 28.4496C14.8101 28.6477 14.4623 28.7624 14.078 28.7629C13.8216 28.7629 13.5828 28.7112 13.3629 28.6188C13.035 28.4799 12.7521 28.2454 12.5535 27.9515C12.3555 27.6573 12.2408 27.3095 12.2403 26.9252C12.2408 26.6678 12.292 26.4295 12.3844 26.2101C12.5232 25.8817 12.7578 25.5988 13.0516 25.4007C13.3464 25.2022 13.6937 25.0875 14.078 25.0875C14.3353 25.0875 14.5737 25.1387 14.793 25.2316C15.1214 25.3699 15.4044 25.6045 15.6024 25.8983C15.801 26.1931 15.9157 26.5404 15.9157 26.9252C15.9157 27.182 15.8645 27.4208 15.7721 27.6398Z" fill="white"/>
</g>
<path d="M58.504 10H60.68L55.752 26H53.448L49.32 13.104L45.192 26H42.888L37.96 10H40.136L44.072 23.28L48.264 10H50.376L54.568 23.28L58.504 10Z" fill="white"/>
<path d="M77 10H79.112V26H77V22.864C75.528 25.2107 73.3733 26.384 70.536 26.384C68.2533 26.384 66.3013 25.5733 64.68 23.952C63.08 22.3307 62.28 20.3467 62.28 18C62.28 15.6533 63.08 13.6693 64.68 12.048C66.3013 10.4267 68.2533 9.61601 70.536 9.61601C73.3733 9.61601 75.528 10.7893 77 13.136V10ZM66.216 22.512C67.432 23.728 68.9253 24.336 70.696 24.336C72.4666 24.336 73.96 23.728 75.176 22.512C76.392 21.2747 77 19.7707 77 18C77 16.2293 76.392 14.736 75.176 13.52C73.96 12.2827 72.4666 11.664 70.696 11.664C68.9253 11.664 67.432 12.2827 66.216 13.52C65 14.736 64.392 16.2293 64.392 18C64.392 19.7707 65 21.2747 66.216 22.512Z" fill="white"/>
<path d="M92.0637 12.048H87.4557V21.744C87.4557 22.6187 87.6264 23.248 87.9677 23.632C88.309 23.9947 88.821 24.1867 89.5037 24.208C90.1864 24.208 91.0397 24.1867 92.0637 24.144V26C89.8237 26.3413 88.1384 26.1813 87.0077 25.52C85.8984 24.8587 85.3437 23.6 85.3437 21.744V12.048H81.9837V10H85.3437V6.16002L87.4557 5.52001V10H92.0637V12.048Z" fill="white"/>
<path d="M102.007 9.61601C104.375 9.61601 106.284 10.4587 107.735 12.144C109.207 13.808 109.943 15.7813 109.943 18.064C109.943 18.2987 109.922 18.6293 109.879 19.056H95.831C96.0443 20.6773 96.727 21.968 97.879 22.928C99.0523 23.8667 100.492 24.336 102.199 24.336C103.415 24.336 104.46 24.0907 105.335 23.6C106.231 23.088 106.903 22.4267 107.351 21.616L109.207 22.704C108.503 23.8347 107.543 24.7307 106.327 25.392C105.111 26.0533 103.724 26.384 102.167 26.384C99.6496 26.384 97.6016 25.5947 96.023 24.016C94.4443 22.4373 93.655 20.432 93.655 18C93.655 15.6107 94.4336 13.616 95.991 12.016C97.5483 10.416 99.5536 9.61601 102.007 9.61601ZM102.007 11.664C100.343 11.664 98.9456 12.1653 97.815 13.168C96.7056 14.1493 96.0443 15.4293 95.831 17.008H107.767C107.554 15.3227 106.903 14.0107 105.815 13.072C104.727 12.1333 103.458 11.664 102.007 11.664Z" fill="white"/>
<path d="M115.414 12.656C116.396 10.7147 118.081 9.74401 120.47 9.74401V11.792C119.02 11.792 117.814 12.2187 116.854 13.072C115.894 13.9253 115.414 15.2693 115.414 17.104V26H113.302V10H115.414V12.656Z" fill="white"/>
<path d="M131.941 9.61601C134.224 9.61601 136.165 10.4267 137.765 12.048C139.386 13.6693 140.197 15.6533 140.197 18C140.197 20.3467 139.386 22.3307 137.765 23.952C136.165 25.5733 134.224 26.384 131.941 26.384C129.104 26.384 126.949 25.2107 125.477 22.864V32.4H123.365V10H125.477V13.136C126.949 10.7893 129.104 9.61601 131.941 9.61601ZM127.301 22.512C128.517 23.728 130.01 24.336 131.781 24.336C133.552 24.336 135.045 23.728 136.261 22.512C137.477 21.2747 138.085 19.7707 138.085 18C138.085 16.2293 137.477 14.736 136.261 13.52C135.045 12.2827 133.552 11.664 131.781 11.664C130.01 11.664 128.517 12.2827 127.301 13.52C126.085 14.736 125.477 16.2293 125.477 18C125.477 19.7707 126.085 21.2747 127.301 22.512Z" fill="white"/>
<path d="M152.285 9.61601C154.567 9.61601 156.509 10.4267 158.109 12.048C159.73 13.6693 160.541 15.6533 160.541 18C160.541 20.3467 159.73 22.3307 158.109 23.952C156.509 25.5733 154.567 26.384 152.285 26.384C149.447 26.384 147.293 25.2107 145.821 22.864V32.4H143.709V10H145.821V13.136C147.293 10.7893 149.447 9.61601 152.285 9.61601ZM147.645 22.512C148.861 23.728 150.354 24.336 152.125 24.336C153.895 24.336 155.389 23.728 156.605 22.512C157.821 21.2747 158.429 19.7707 158.429 18C158.429 16.2293 157.821 14.736 156.605 13.52C155.389 12.2827 153.895 11.664 152.125 11.664C150.354 11.664 148.861 12.2827 147.645 13.52C146.429 14.736 145.821 16.2293 145.821 18C145.821 19.7707 146.429 21.2747 147.645 22.512Z" fill="white"/>
<path d="M164.052 26V2.64001H166.164V26H164.052Z" fill="white"/>
<defs>
<clipPath id="clip0_498_1749">
<rect width="29" height="29" fill="white" transform="translate(1 2)"/>
</clipPath>
</defs>
</svg>
